<svg width="112" height="44" viewBox="0 0 112 44" fill="none" xmlns="http://www.w3.org/2000/svg">
<g id="Group">
<g id="Group_2">
<path id="Vector" d="M33.0274 26.9295C33.1898 27.4287 33.5025 27.7354 33.9656 27.8496V28.2225H27.3986V27.8496C27.8977 27.7173 28.2164 27.4046 28.3487 26.9115C28.481 26.4244 28.5532 25.7268 28.5532 24.8247V19.1237C28.5532 17.5301 27.9879 16.7302 26.8513 16.7302C26.4303 16.7302 26.0154 16.9167 25.6125 17.2895C25.2096 17.6624 24.957 18.0893 24.8608 18.5704L24.8908 19.0876V24.8187C24.8908 25.7208 24.975 26.4244 25.1374 26.9235C25.2998 27.4227 25.6125 27.7294 26.0755 27.8436V28.2165H19.5085V27.8436C20.0077 27.7113 20.3264 27.3986 20.4587 26.9055C20.591 26.4184 20.6632 25.7208 20.6632 24.8187V19.1177C20.6632 18.3118 20.5309 17.7105 20.2603 17.3196C19.9896 16.9287 19.5687 16.7302 18.9913 16.7302C18.5704 16.7302 18.1675 16.9106 17.7826 17.2775C17.3977 17.6443 17.1572 18.0352 17.0609 18.4562V24.8488C17.0609 25.7508 17.1391 26.4424 17.2895 26.9235C17.4458 27.4046 17.7585 27.7113 18.2396 27.8436V28.2165H11.6726V27.8436C12.1718 27.7113 12.4845 27.4046 12.6108 26.9356C12.7371 26.4665 12.7972 25.7689 12.7972 24.8488V18.1976C12.7972 17.6804 12.695 17.2835 12.4965 17.0008C12.292 16.7242 11.9072 16.4476 11.3298 16.177V15.8342L17.0609 14.6555V17.506C17.4458 16.6821 17.987 15.9966 18.6907 15.4613C19.3943 14.9261 20.152 14.6555 20.9819 14.6555C23.2491 14.6555 24.536 15.6538 24.8427 17.6503C25.1675 16.7844 25.7087 16.0687 26.4544 15.5034C27.2061 14.9381 28.012 14.6555 28.8719 14.6555C30.1228 14.6555 31.085 14.9802 31.7646 15.6177C32.4441 16.2612 32.7869 17.3978 32.7869 19.0335V24.8247C32.7869 25.7268 32.8711 26.4304 33.0334 26.9295H33.0274Z" fill="white"/>
<path id="Vector_2" d="M45.542 15.5756C46.6185 16.189 47.4243 17.0129 47.9596 18.0533C48.4948 19.0876 48.7654 20.2603 48.7654 21.5653C48.7654 22.8703 48.4948 24.0189 47.9596 25.0653C47.4243 26.1117 46.6125 26.9416 45.542 27.555C44.4656 28.1684 43.1606 28.4751 41.6271 28.4751C40.0936 28.4751 38.7826 28.1684 37.7121 27.555C36.6357 26.9416 35.8298 26.1117 35.2946 25.0653C34.7594 24.0189 34.4888 22.8522 34.4888 21.5653C34.4888 20.2783 34.7594 19.0876 35.2946 18.0533C35.8298 17.0189 36.6357 16.189 37.7121 15.5756C38.7886 14.9622 40.0936 14.6555 41.6271 14.6555C43.1606 14.6555 44.4716 14.9622 45.542 15.5756ZM39.6786 25.6727C39.7869 26.5627 39.9793 27.1941 40.268 27.561C40.5566 27.9278 41.0077 28.1082 41.6211 28.1082C42.2345 28.1082 42.6855 27.9278 42.9742 27.561C43.2628 27.1941 43.4613 26.5687 43.5635 25.6727C43.6657 24.7766 43.7199 23.4115 43.7199 21.5653C43.7199 19.7191 43.6657 18.3539 43.5635 17.4579C43.4553 16.5618 43.2628 15.9364 42.9742 15.5696C42.6855 15.2027 42.2345 15.0223 41.6211 15.0223C41.0077 15.0223 40.5566 15.2027 40.268 15.5696C39.9793 15.9364 39.7809 16.5618 39.6786 17.4579C39.5704 18.3479 39.5223 19.7191 39.5223 21.5653C39.5223 23.4115 39.5764 24.7766 39.6786 25.6727Z" fill="white"/>
<path id="Vector_3" d="M57.6839 26.1237C57.9786 25.9313 58.2191 25.7088 58.3875 25.4622L58.7062 25.6667C58.4536 26.4184 57.9365 27.0739 57.1487 27.6392C56.3609 28.2045 55.4768 28.4871 54.4966 28.4871C51.6521 28.4871 50.2329 27.0198 50.2329 24.0791V15.293H48.6212L48.561 14.9201H50.2329V11.0593L54.4665 10.4519V14.9141H58.0387L57.9786 15.287H54.4665V23.9889C54.4665 24.8127 54.6409 25.4261 54.9837 25.817C55.3265 26.2079 55.8858 26.4064 56.6555 26.4064C57.0404 26.4064 57.3772 26.3102 57.6779 26.1177L57.6839 26.1237Z" fill="white"/>
<path id="Vector_4" d="M65.1891 26.9296C65.3455 27.4107 65.6582 27.7174 66.1393 27.8497V28.2225H59.5723V27.8497C60.0714 27.7174 60.3901 27.4046 60.5224 26.9115C60.6547 26.4244 60.7269 25.7268 60.7269 24.8248V18.1134C60.7269 17.6323 60.6247 17.2595 60.4262 16.9888C60.2218 16.7182 59.8249 16.4536 59.2295 16.183V15.8402L64.9606 14.6615V24.8308C64.9606 25.7509 65.0388 26.4545 65.1891 26.9356V26.9296ZM60.8652 9.11083C61.3283 8.6598 61.8816 8.43127 62.5371 8.43127C63.1926 8.43127 63.7458 8.6598 64.2089 9.11083C64.6719 9.56186 64.9004 10.1151 64.9004 10.7646C64.9004 11.4141 64.6719 11.9734 64.2089 12.4364C63.7458 12.8995 63.1926 13.128 62.5371 13.128C61.8816 13.128 61.3283 12.8995 60.8652 12.4364C60.4022 11.9734 60.1737 11.4201 60.1737 10.7646C60.1737 10.1091 60.4022 9.56186 60.8652 9.11083Z" fill="white"/>
<path id="Vector_5" d="M73.1933 26.9416C73.3496 27.4287 73.6623 27.7354 74.1434 27.8496V28.2225H67.5764V27.8496C68.0756 27.7173 68.3943 27.4106 68.5266 26.9295C68.6589 26.4484 68.7311 25.7569 68.7311 24.8548V10.079C68.7311 9.57988 68.6288 9.20102 68.4304 8.94243C68.2259 8.68384 67.829 8.4493 67.2336 8.23882V7.86597L72.9647 6.74139V24.8608C72.9647 25.7629 73.0429 26.4605 73.1933 26.9476V26.9416Z" fill="white"/>
<path id="Vector_6" d="M75.671 23.3995C76.134 22.8883 76.7835 22.4854 77.6315 22.1907C78.4734 21.896 79.8085 21.5232 81.6366 21.0842L82.4425 20.8797V19.0636C82.4425 17.8909 82.214 16.9588 81.7509 16.2672C81.2878 15.5756 80.7045 15.2328 79.9949 15.2328C79.5559 15.2328 79.1469 15.3411 78.7861 15.5515C78.6117 15.6297 78.4794 15.7199 78.3832 15.8282C78.287 15.9364 78.2389 16.0266 78.2389 16.0988C78.2389 16.2311 78.3351 16.3273 78.5275 16.3875C78.9485 16.5017 79.3033 16.7904 79.592 17.2534C79.7243 17.5241 79.7964 17.8007 79.7964 18.0893C79.7964 18.4321 79.7122 18.7509 79.5378 19.0395C79.3634 19.3282 79.1229 19.5567 78.8162 19.7311C78.5636 19.8634 78.287 19.9356 77.9803 19.9356C77.6375 19.9356 77.3188 19.8514 77.0301 19.677C76.7414 19.5026 76.5129 19.262 76.3385 18.9553C76.2062 18.7088 76.1341 18.4201 76.1341 18.0893C76.1341 17.6684 76.2483 17.3136 76.4768 17.0249C76.7234 16.6821 76.988 16.3754 77.2706 16.1048C77.5473 15.8342 77.9743 15.5455 78.5516 15.2388C78.9906 15.0103 79.4717 14.8479 79.9889 14.7517C80.5061 14.6555 80.9511 14.6254 81.3119 14.6675C83.116 14.6675 84.4571 15.1787 85.3291 16.207C86.2011 17.2354 86.6401 18.6426 86.6401 20.4287V24.7225C86.6401 25.2397 86.7543 25.7088 86.9889 26.1177C87.2174 26.5326 87.5662 26.7371 88.0232 26.7371C88.1976 26.7371 88.366 26.695 88.5284 26.6048C88.6907 26.5206 88.805 26.4003 88.8591 26.244L89.1779 26.4184C89.0035 26.9957 88.5945 27.4828 87.939 27.8857C87.2835 28.2887 86.5198 28.4931 85.6358 28.4931C84.9081 28.4931 84.2165 28.2887 83.5731 27.8737C82.9296 27.4588 82.5627 26.8394 82.4665 26.0155C82.256 26.7251 81.781 27.3144 81.0413 27.7895C80.3016 28.2586 79.4356 28.4931 78.4313 28.4931C77.9502 28.4931 77.4451 28.3969 76.9038 28.2045C76.3686 28.012 75.9115 27.6933 75.5327 27.2543C75.1598 26.8153 74.9734 26.244 74.9734 25.5524C74.9734 24.6323 75.2019 23.9167 75.665 23.4055L75.671 23.3995ZM80.037 22.6237C79.604 23.2491 79.3875 23.9828 79.3875 24.8247C79.3875 25.3058 79.5138 25.7448 79.7603 26.1357C80.0069 26.5266 80.3858 26.7251 80.8849 26.7251C81.2277 26.7251 81.5344 26.6048 81.805 26.3643C82.0756 26.1237 82.2861 25.811 82.4365 25.4261V21.2766C81.2638 21.5472 80.4639 21.9923 80.031 22.6177L80.037 22.6237Z" fill="white"/>
<path id="Vector_7" d="M95.6906 26.9416C95.8409 27.4287 96.1596 27.7354 96.6407 27.8496V28.2225H90.0737V27.8496C90.5729 27.7173 90.8916 27.4106 91.0239 26.9295C91.1562 26.4484 91.2284 25.7569 91.2284 24.8548V10.079C91.2284 9.57988 91.1261 9.20102 90.9277 8.94243C90.7232 8.68384 90.3263 8.4493 89.731 8.23882V7.86597L95.4621 6.74139V24.8608C95.4621 25.7629 95.5402 26.4605 95.6906 26.9476V26.9416Z" fill="white"/>
</g>
<path id="Vector_8" d="M21.6435 43.2869C9.71219 43.2869 0 33.5808 0 21.6435C0 9.70618 9.70618 0 21.6435 0C29.2569 0 36.3952 4.0713 40.2801 10.6323C40.5266 11.0533 40.3883 11.5885 39.9734 11.835C39.5584 12.0816 39.0172 11.9433 38.7706 11.5284C35.2045 5.50258 28.6435 1.76202 21.6495 1.76202C10.6864 1.76202 1.76804 10.6804 1.76804 21.6435C1.76804 32.6065 10.6864 41.5249 21.6495 41.5249C28.6435 41.5249 35.2045 37.7844 38.7706 31.7586C39.0172 31.3376 39.5584 31.1993 39.9734 31.4519C40.3943 31.6985 40.5326 32.2397 40.2801 32.6546C36.3952 39.2156 29.2569 43.2869 21.6435 43.2869Z" fill="url(#paint0_linear_138_2405)"/>
<g id="Group_3">
<path id="Vector_9" d="M53.2637 30.3153C54.3402 30.9287 55.146 31.7526 55.6812 32.793C56.2165 33.8273 56.4871 35 56.4871 36.305C56.4871 37.61 56.2165 38.7586 55.6812 39.805C55.146 40.8514 54.3342 41.6813 53.2637 42.2947C52.1873 42.9081 50.8823 43.2148 49.3488 43.2148C47.8153 43.2148 46.5043 42.9081 45.4338 42.2947C44.3573 41.6813 43.5515 40.8514 43.0163 39.805C42.4811 38.7586 42.2104 37.5919 42.2104 36.305C42.2104 35.018 42.4811 33.8273 43.0163 32.793C43.5515 31.7586 44.3573 30.9287 45.4338 30.3153C46.5103 29.7019 47.8153 29.3952 49.3488 29.3952C50.8823 29.3952 52.1933 29.7019 53.2637 30.3153ZM47.4063 40.4124C47.5086 41.3024 47.707 41.9339 47.9957 42.3007C48.2843 42.6675 48.7354 42.8479 49.3488 42.8479C49.9622 42.8479 50.4132 42.6675 50.7019 42.3007C50.9905 41.9339 51.189 41.3084 51.2912 40.4124C51.3995 39.5163 51.4476 38.1512 51.4476 36.305C51.4476 34.4588 51.3934 33.0937 51.2912 32.1976C51.183 31.3016 50.9905 30.6761 50.7019 30.3093C50.4132 29.9424 49.9622 29.762 49.3488 29.762C48.7354 29.762 48.2843 29.9424 47.9957 30.3093C47.707 30.6761 47.5086 31.3016 47.4063 32.1976C47.2981 33.0876 47.25 34.4588 47.25 36.305C47.25 38.1512 47.3041 39.5163 47.4063 40.4124Z" fill="white"/>
<path id="Vector_10" d="M67.2639 37.0807C67.7269 37.8325 67.9554 38.5962 67.9554 39.384C67.9554 40.2079 67.6968 40.9656 67.1797 41.6572C66.8369 42.1022 66.2956 42.469 65.568 42.7637C64.8403 43.0584 63.9623 43.2088 62.946 43.2088C61.8154 43.2088 60.7991 43.1005 59.909 42.878C59.019 42.6555 58.3094 42.3849 57.7922 42.0541V38.3376H58.1651C58.3395 39.0292 58.6401 39.7208 59.0731 40.4123C59.5061 41.1039 60.0534 41.6813 60.7149 42.1383C61.3764 42.6014 62.1221 42.8299 62.946 42.8299C63.4812 42.8299 63.9082 42.6735 64.2149 42.3668C64.5216 42.0601 64.6779 41.6752 64.6779 41.2122C64.6779 40.8093 64.5517 40.4003 64.3051 39.9854C64.0525 39.5704 63.6917 39.2036 63.2106 38.8788L60.2999 37.1228C59.434 36.5635 58.7664 35.9381 58.2974 35.2345C57.8283 34.5309 57.5938 33.8213 57.5938 33.0876C57.5938 32.2637 57.8884 31.494 58.4838 30.7844C58.8266 30.3995 59.3558 30.0687 60.0654 29.7921C60.775 29.5155 61.641 29.3771 62.6573 29.3771C63.7338 29.3771 64.678 29.4613 65.4958 29.6237C66.3137 29.7861 66.9391 29.9845 67.3841 30.213V33.2981H67.0113C66.7647 32.3179 66.2475 31.4819 65.4718 30.7904C64.696 30.0988 63.7578 29.756 62.6633 29.756C62.1462 29.756 61.7192 29.8943 61.3824 30.1709C61.0457 30.4476 60.8773 30.8084 60.8773 31.2534C60.8773 31.5962 61.0096 31.957 61.2682 32.3359C61.5267 32.7087 61.9176 33.0636 62.4348 33.3883L65.3455 35.2045C66.1694 35.7036 66.8128 36.329 67.2759 37.0747L67.2639 37.0807Z" fill="white"/>
<path id="Vector_11" d="M90.6813 30.3273C90.3145 30.5498 89.9296 30.9949 89.5147 31.6684C89.0997 32.3419 88.6547 33.3222 88.1736 34.6091L85.0043 43.2208H84.0542L80.049 34.4948L76.964 43.2208H75.9537L70.5653 31.5241C70.2586 30.9106 69.9399 30.5077 69.6152 30.3153C69.2904 30.1229 68.9416 30.0206 68.5808 29.9966V29.6538H75.8695V29.9966C75.3523 29.9966 75.0937 30.2552 75.0937 30.7723C75.0937 31.1572 75.226 31.6203 75.4966 32.1555L78.3471 38.1452L79.8445 34.0559L78.6659 31.5181C78.3592 30.8866 78.0825 30.4777 77.848 30.2912C77.6074 30.1108 77.3368 30.0086 77.0241 29.9906V29.6478H84.0542V29.9906C83.4768 29.9906 83.1882 30.2612 83.1882 30.7964C83.1882 31.1813 83.3205 31.6323 83.5911 32.1495L86.4116 38.1693L87.7647 34.5129C87.9571 33.8814 88.0533 33.226 88.0533 32.5524C88.0533 31.8248 87.897 31.2113 87.5782 30.7242C87.2595 30.2371 86.7183 29.9906 85.9485 29.9906V29.6478H91.854V29.9906C91.433 29.9906 91.0361 30.0988 90.6753 30.3213L90.6813 30.3273Z" fill="white"/>
<path id="Vector_12" d="M91.03 38.1332C91.493 37.622 92.1425 37.2191 92.9904 36.9244C93.8384 36.6297 95.1674 36.2569 96.9956 35.8179L97.8014 35.6134V33.7972C97.8014 32.6246 97.5729 31.6924 97.1098 31.0009C96.6468 30.3093 96.0635 29.9665 95.3538 29.9665C94.9088 29.9665 94.5059 30.0747 94.1451 30.2852C93.9707 30.3634 93.8384 30.4536 93.7422 30.5619C93.6459 30.6701 93.5978 30.7603 93.5978 30.8325C93.5978 30.9648 93.694 31.061 93.8865 31.1211C94.3074 31.2354 94.6623 31.5241 94.9509 31.9871C95.0832 32.2577 95.1554 32.5344 95.1554 32.823C95.1554 33.1658 95.0712 33.4845 94.8968 33.7732C94.7224 34.0619 94.4819 34.2904 94.1752 34.4648C93.9226 34.5971 93.6459 34.6692 93.3392 34.6692C92.9904 34.6692 92.6777 34.5851 92.3891 34.4107C92.1004 34.2363 91.8719 33.9957 91.6975 33.689C91.5652 33.4424 91.493 33.1538 91.493 32.823C91.493 32.4021 91.6073 32.0473 91.8358 31.7586C92.0824 31.4158 92.347 31.1091 92.6296 30.8385C92.9062 30.5679 93.3332 30.2792 93.9105 29.9725C94.3495 29.744 94.8306 29.5816 95.3538 29.4854C95.871 29.3892 96.316 29.3591 96.6769 29.4012C98.481 29.4012 99.8221 29.9124 100.694 30.9407C101.566 31.9691 102.005 33.3763 102.005 35.1624V39.4562C102.005 39.9734 102.119 40.4424 102.348 40.8514C102.576 41.2663 102.925 41.4708 103.382 41.4708C103.557 41.4708 103.725 41.4287 103.887 41.3385C104.05 41.2543 104.164 41.134 104.218 40.9777L104.537 41.1521C104.362 41.7294 103.953 42.2165 103.298 42.6194C102.642 43.0223 101.879 43.2268 100.995 43.2268C100.267 43.2268 99.5755 43.0223 98.938 42.6074C98.2946 42.1924 97.9277 41.573 97.8315 40.7492C97.621 41.4588 97.1459 42.0481 96.4062 42.5232C95.6666 42.9923 94.7946 43.2268 93.7963 43.2268C93.3152 43.2268 92.81 43.1306 92.2688 42.9381C91.7336 42.7457 91.2765 42.427 90.8977 41.988C90.5248 41.549 90.3384 40.9777 90.3384 40.2861C90.3384 39.366 90.5669 38.6503 91.03 38.1392V38.1332ZM95.3899 37.3574C94.9569 37.9828 94.7404 38.7165 94.7404 39.5584C94.7404 40.0395 94.8667 40.4785 95.1133 40.8694C95.3599 41.2603 95.7387 41.4588 96.2379 41.4588C96.5806 41.4588 96.8934 41.3385 97.158 41.0979C97.4286 40.8574 97.6391 40.5447 97.7894 40.1598V36.0103C96.6167 36.2809 95.8169 36.7259 95.3839 37.3514L95.3899 37.3574Z" fill="white"/>
<path id="Vector_13" d="M111.05 41.6752C111.2 42.1624 111.519 42.4691 112 42.5833V42.9562H105.433V42.5833C105.932 42.451 106.251 42.1443 106.383 41.6632C106.516 41.1821 106.588 40.4905 106.588 39.5885V24.8127C106.588 24.3136 106.486 23.9347 106.287 23.6761C106.083 23.4175 105.686 23.183 105.09 22.9725V22.5996L110.821 21.4751V39.5945C110.821 40.4965 110.9 41.1941 111.05 41.6813V41.6752Z" fill="white"/>
</g>
</g>
<defs>
<linearGradient id="paint0_linear_138_2405" x1="9.59794" y1="3.19931" x2="33.1057" y2="39.1795" gradientUnits="userSpaceOnUse">
<stop stop-color="#FECF08"/>
<stop offset="1" stop-color="#FAAD1B"/>
</linearGradient>
</defs>
</svg>
